<?xml version="1.0" encoding="UTF-8"?>
<svg xmlns="http://www.w3.org/2000/svg" xmlns:xlink="http://www.w3.org/1999/xlink" viewBox="0 0 725.76 967.68">
  <defs>
    <style>
      .cls-1 {
        stroke: #0071bb;
      }

      .cls-1, .cls-2 {
        fill: #0071bb;
      }

      .cls-1, .cls-3, .cls-4 {
        stroke-miterlimit: 10;
      }

      .cls-5 {
        fill: url(#linear-gradient-2);
      }

      .cls-6 {
        fill: url(#linear-gradient-17);
      }

      .cls-7 {
        fill: url(#linear-gradient-15);
      }

      .cls-8 {
        fill: url(#linear-gradient-18);
      }

      .cls-9 {
        fill: url(#linear-gradient-14);
      }

      .cls-10 {
        fill: url(#linear-gradient-6);
      }

      .cls-11 {
        fill: url(#linear-gradient-11);
      }

      .cls-12 {
        fill: url(#linear-gradient-10);
      }

      .cls-13 {
        fill: url(#radial-gradient);
      }

      .cls-3 {
        fill: #c0272d;
        stroke: #c0272d;
      }

      .cls-14 {
        fill: url(#linear-gradient-16);
      }

      .cls-4 {
        fill: url(#radial-gradient-3);
        stroke: url(#radial-gradient-4);
      }

      .cls-15 {
        fill: url(#linear-gradient-5);
      }

      .cls-16 {
        fill: url(#radial-gradient-2);
      }

      .cls-17 {
        fill: url(#linear-gradient-7);
      }

      .cls-18 {
        fill: url(#linear-gradient-9);
      }

      .cls-19 {
        fill: url(#linear-gradient-3);
      }

      .cls-20 {
        fill: url(#linear-gradient);
      }

      .cls-21 {
        fill: url(#linear-gradient-19);
      }

      .cls-22 {
        fill: url(#linear-gradient-4);
      }

      .cls-23 {
        fill: url(#linear-gradient-8);
      }

      .cls-24 {
        fill: url(#linear-gradient-12);
      }

      .cls-25 {
        fill: url(#linear-gradient-13);
      }
    </style>
    <linearGradient id="linear-gradient" x1="310.5" y1="715.01" x2="343.5" y2="715.01" gradientUnits="userSpaceOnUse">
      <stop offset=".01" stop-color="#332f30"/>
      <stop offset=".02" stop-color="#2c2829"/>
      <stop offset=".49" stop-color="#fff"/>
      <stop offset="1" stop-color="#000"/>
    </linearGradient>
    <linearGradient id="linear-gradient-2" x1="312.25" y1="740.5" x2="338.57" y2="740.5" xlink:href="#linear-gradient"/>
    <linearGradient id="linear-gradient-3" x1="321.64" y1="715.46" x2="330.09" y2="715.46" xlink:href="#linear-gradient"/>
    <linearGradient id="linear-gradient-4" x1="326.5" y1="404.5" x2="339.5" y2="404.5" xlink:href="#linear-gradient"/>
    <linearGradient id="linear-gradient-5" x1="326.5" y1="348.69" x2="339.5" y2="348.69" xlink:href="#linear-gradient"/>
    <radialGradient id="radial-gradient" cx="333" cy="345" fx="333" fy="345" r="4.92" gradientUnits="userSpaceOnUse">
      <stop offset="0" stop-color="#fff"/>
      <stop offset="1" stop-color="#000"/>
    </radialGradient>
    <linearGradient id="linear-gradient-6" x1="330.02" y1="405" x2="335.42" y2="405" xlink:href="#linear-gradient"/>
    <linearGradient id="linear-gradient-7" x1="473.5" y1="404.5" x2="486.5" y2="404.5" xlink:href="#linear-gradient"/>
    <linearGradient id="linear-gradient-8" x1="473.5" y1="348.69" x2="486.5" y2="348.69" xlink:href="#linear-gradient"/>
    <radialGradient id="radial-gradient-2" cx="480" fx="480" xlink:href="#radial-gradient"/>
    <linearGradient id="linear-gradient-9" x1="477.02" y1="405" x2="482.42" y2="405" xlink:href="#linear-gradient"/>
    <linearGradient id="linear-gradient-10" x1="311.66" y1="729.25" x2="339.72" y2="729.25" gradientUnits="userSpaceOnUse">
      <stop offset="0" stop-color="#7b7879"/>
      <stop offset=".49" stop-color="#fff"/>
      <stop offset="1" stop-color="#727070"/>
    </linearGradient>
    <linearGradient id="linear-gradient-11" x1="470.5" y1="714.01" x2="503.5" y2="714.01" xlink:href="#linear-gradient"/>
    <linearGradient id="linear-gradient-12" x1="472.25" y1="739.5" x2="498.57" y2="739.5" xlink:href="#linear-gradient"/>
    <linearGradient id="linear-gradient-13" x1="481.64" y1="714.46" x2="490.09" y2="714.46" xlink:href="#linear-gradient"/>
    <linearGradient id="linear-gradient-14" x1="471.66" y1="728.25" x2="499.72" y2="728.25" xlink:href="#linear-gradient-10"/>
    <linearGradient id="linear-gradient-15" x1="340.5" y1="544.12" x2="472.5" y2="544.12" gradientUnits="userSpaceOnUse">
      <stop offset=".01" stop-color="#332f30"/>
      <stop offset=".11" stop-color="#353132"/>
      <stop offset=".18" stop-color="#3e3a3b"/>
      <stop offset=".24" stop-color="#4d494a"/>
      <stop offset=".29" stop-color="#625f60"/>
      <stop offset=".34" stop-color="#7d7b7c"/>
      <stop offset=".39" stop-color="#9f9d9e"/>
      <stop offset=".44" stop-color="#c7c6c6"/>
      <stop offset=".48" stop-color="#f4f4f4"/>
      <stop offset=".49" stop-color="#fff"/>
      <stop offset=".51" stop-color="#e3e3e3"/>
      <stop offset=".54" stop-color="#b4b4b4"/>
      <stop offset=".57" stop-color="#898989"/>
      <stop offset=".61" stop-color="#646464"/>
      <stop offset=".65" stop-color="#454545"/>
      <stop offset=".7" stop-color="#2b2b2b"/>
      <stop offset=".75" stop-color="#181818"/>
      <stop offset=".8" stop-color="#0a0a0a"/>
      <stop offset=".87" stop-color="#020202"/>
      <stop offset="1" stop-color="#000"/>
    </linearGradient>
    <linearGradient id="linear-gradient-16" x1="400.5" y1="642.5" x2="412.5" y2="642.5" gradientUnits="userSpaceOnUse">
      <stop offset=".01" stop-color="#332f30"/>
      <stop offset=".15" stop-color="#353132"/>
      <stop offset=".22" stop-color="#3c3839"/>
      <stop offset=".27" stop-color="#494647"/>
      <stop offset=".32" stop-color="#5c5959"/>
      <stop offset=".36" stop-color="#747172"/>
      <stop offset=".4" stop-color="#918f90"/>
      <stop offset=".43" stop-color="#b4b3b3"/>
      <stop offset=".46" stop-color="#dcdbdb"/>
      <stop offset=".49" stop-color="#fff"/>
      <stop offset=".49" stop-color="#fbfbfb"/>
      <stop offset=".51" stop-color="#ccc"/>
      <stop offset=".54" stop-color="#a1a1a1"/>
      <stop offset=".57" stop-color="#7a7a7a"/>
      <stop offset=".59" stop-color="#595959"/>
      <stop offset=".63" stop-color="#3d3d3d"/>
      <stop offset=".66" stop-color="#262626"/>
      <stop offset=".71" stop-color="#151515"/>
      <stop offset=".76" stop-color="#090909"/>
      <stop offset=".83" stop-color="#010101"/>
      <stop offset="1" stop-color="#000"/>
    </linearGradient>
    <radialGradient id="radial-gradient-3" cx="406.07" cy="499.55" fx="406.07" fy="499.55" r="39.48" gradientUnits="userSpaceOnUse">
      <stop offset="0" stop-color="#fff"/>
      <stop offset=".02" stop-color="#f9eced"/>
      <stop offset=".06" stop-color="#edc3c5"/>
      <stop offset=".11" stop-color="#e29ea0"/>
      <stop offset=".17" stop-color="#d97d81"/>
      <stop offset=".23" stop-color="#d16266"/>
      <stop offset=".3" stop-color="#ca4c51"/>
      <stop offset=".38" stop-color="#c53b40"/>
      <stop offset=".48" stop-color="#c22f35"/>
      <stop offset=".61" stop-color="#c0282e"/>
      <stop offset="1" stop-color="#c0272d"/>
    </radialGradient>
    <radialGradient id="radial-gradient-4" cx="406.07" cy="499.53" fx="406.07" fy="499.53" r="39.98" gradientUnits="userSpaceOnUse">
      <stop offset="0" stop-color="#fff"/>
      <stop offset=".08" stop-color="#f4dcdc"/>
      <stop offset=".2" stop-color="#e6acae"/>
      <stop offset=".32" stop-color="#da8386"/>
      <stop offset=".45" stop-color="#d16166"/>
      <stop offset=".58" stop-color="#c9484d"/>
      <stop offset=".71" stop-color="#c4353b"/>
      <stop offset=".85" stop-color="#c12a30"/>
      <stop offset="1" stop-color="#c0272d"/>
    </radialGradient>
    <linearGradient id="linear-gradient-17" x1="392.5" y1="424.5" x2="417.5" y2="424.5" gradientUnits="userSpaceOnUse">
      <stop offset=".01" stop-color="#332f30"/>
      <stop offset=".02" stop-color="#2c2829"/>
      <stop offset=".19" stop-color="#2d292a"/>
      <stop offset=".25" stop-color="#343031"/>
      <stop offset=".3" stop-color="#403d3d"/>
      <stop offset=".34" stop-color="#514e4f"/>
      <stop offset=".38" stop-color="#676465"/>
      <stop offset=".41" stop-color="#838081"/>
      <stop offset=".43" stop-color="#a3a1a2"/>
      <stop offset=".46" stop-color="#c9c8c8"/>
      <stop offset=".48" stop-color="#f2f2f2"/>
      <stop offset=".49" stop-color="#fff"/>
      <stop offset=".49" stop-color="#f5f5f5"/>
      <stop offset=".51" stop-color="#c7c7c7"/>
      <stop offset=".54" stop-color="#9c9c9c"/>
      <stop offset=".56" stop-color="#777"/>
      <stop offset=".59" stop-color="#565656"/>
      <stop offset=".62" stop-color="#3b3b3b"/>
      <stop offset=".65" stop-color="#252525"/>
      <stop offset=".69" stop-color="#141414"/>
      <stop offset=".74" stop-color="#080808"/>
      <stop offset=".81" stop-color="#010101"/>
      <stop offset="1" stop-color="#000"/>
    </linearGradient>
    <linearGradient id="linear-gradient-18" x1="370.5" y1="354.97" x2="442.5" y2="354.97" gradientUnits="userSpaceOnUse">
      <stop offset=".01" stop-color="#332f30"/>
      <stop offset=".02" stop-color="#2c2829"/>
      <stop offset=".13" stop-color="#2e2a2b"/>
      <stop offset=".2" stop-color="#363233"/>
      <stop offset=".25" stop-color="#444142"/>
      <stop offset=".3" stop-color="#585556"/>
      <stop offset=".35" stop-color="#727070"/>
      <stop offset=".39" stop-color="#929091"/>
      <stop offset=".43" stop-color="#b8b7b7"/>
      <stop offset=".47" stop-color="#e3e2e3"/>
      <stop offset=".49" stop-color="#fff"/>
      <stop offset=".51" stop-color="#d4d4d4"/>
      <stop offset=".54" stop-color="#a8a8a8"/>
      <stop offset=".57" stop-color="gray"/>
      <stop offset=".6" stop-color="#5d5d5d"/>
      <stop offset=".64" stop-color="#404040"/>
      <stop offset=".68" stop-color="#282828"/>
      <stop offset=".72" stop-color="#161616"/>
      <stop offset=".78" stop-color="#090909"/>
      <stop offset=".85" stop-color="#020202"/>
      <stop offset="1" stop-color="#000"/>
    </linearGradient>
    <linearGradient id="linear-gradient-19" x1="384.75" y1="254.19" x2="426" y2="254.19" xlink:href="#linear-gradient"/>
  </defs>
  <g id="Thrusters_Cannons" data-name="Thrusters/Cannons">
    <path class="cls-20" d="m310.5,703.5l33-1-3.78,22.49c-3.22,1.19-8.54,2.7-15.22,2.51-5.47-.16-9.89-1.41-12.84-2.51-.39-7.16-.77-14.33-1.16-21.49Z"/>
    <path class="cls-5" d="m314.5,744.5c2.71,3.91,7.53,5,12,5,4,0,7-1,8.07-3.75.15-.53.78-2.72.93-3.25,1.03-3.58,2.05-7.17,3.07-10.75-2.16.58-4.58,1.12-7.25,1.37-4.61.44-11.19.37-19.07-1.63,0,0,1.68,12.18,2.25,13Z"/>
    <path class="cls-19" d="m329.88,702.91l-7.65.23c-.59.16-1.24,21.86.76,24.86h5c3-8,1.89-24.98,1.88-25.09Z"/>
    <path class="cls-22" d="m339.5,457.5h-13v-106c1.46.46,3.52.94,6,1,2.97.07,5.39-.49,7-1v106Z"/>
    <path class="cls-15" d="m326.5,351.5v-6.5s6,5.5,13,0v6.5s-5,2-13,0"/>
    <ellipse class="cls-13" cx="333" cy="345" rx="6.5" ry="2.5"/>
    <path class="cls-10" d="m332.76,457.5c1.26,0,2.3-.96,2.39-2.21,1.05-14.74-1.33-92.45-1.62-101.85-.02-.52-.44-.93-.97-.93h-.03c-.58,0-1.05.45-1.06,1.03-.26,9.82-2.23,87.1-1.12,101.77.09,1.25,1.14,2.21,2.39,2.21h.01Z"/>
    <path class="cls-17" d="m486.5,457.5h-13v-106c1.46.46,3.52.94,6,1,2.97.07,5.39-.49,7-1v106Z"/>
    <path class="cls-23" d="m473.5,351.5v-6.5s6,5.5,13,0v6.5s-5,2-13,0"/>
    <ellipse class="cls-16" cx="480" cy="345" rx="6.5" ry="2.5"/>
    <path class="cls-18" d="m479.76,457.5c1.26,0,2.3-.96,2.39-2.21,1.05-14.74-1.33-92.45-1.62-101.85-.02-.52-.44-.93-.97-.93h-.03c-.58,0-1.05.45-1.06,1.03-.26,9.82-2.23,87.1-1.12,101.77.09,1.25,1.14,2.21,2.39,2.21h.01Z"/>
    <path class="cls-12" d="m324.5,727.5c-8,0-9-2-12.84-2.51l.6,6.51c3.1.97,7.66,2.02,13.25,2,5.46-.02,9.94-1.04,13-2l1.22-6.51c-3.22.51-3.22,2.51-15.22,2.51Z"/>
    <path class="cls-11" d="m470.5,702.5l33-1-3.78,22.49c-3.22,1.19-8.54,2.7-15.22,2.51-5.47-.16-9.89-1.41-12.84-2.51-.39-7.16-.77-14.33-1.16-21.49Z"/>
    <path class="cls-24" d="m474.5,743.5c2.71,3.91,7.53,5,12,5,4,0,7-1,8.07-3.75.15-.53.78-2.72.93-3.25,1.03-3.58,2.05-7.17,3.07-10.75-2.16.58-4.58,1.12-7.25,1.37-4.61.44-11.19.37-19.07-1.63,0,0,1.68,12.18,2.25,13Z"/>
    <path class="cls-25" d="m489.88,701.91l-7.65.23c-.59.16-1.24,21.86.76,24.86h5c3-8,1.89-24.98,1.88-25.09Z"/>
    <path class="cls-9" d="m484.5,726.5c-8,0-9-2-12.84-2.51l.6,6.51c3.1.97,7.66,2.02,13.25,2,5.46-.02,9.94-1.04,13-2l1.22-6.51c-3.22.51-3.22,2.51-15.22,2.51Z"/>
  </g>
  <g id="Rear_Panel" data-name="Rear Panel">
    <polyline class="cls-3" points="340.5 537.5 340.5 545.22 398.5 622.5 414.5 622.5 472.5 544.5 472.5 531.5"/>
  </g>
  <g id="Mid_Section" data-name="Mid Section">
    <path class="cls-1" d="m381.5,371.5v91h49.14c.11-30.33.22-60.67.33-91h-49.47"/>
    <polygon class="cls-1" points="370.82 318.55 380.5 328.5 381.5 462.5 354.5 456.5 362.5 403.5 368.5 398.5 370.82 318.55"/>
    <polygon class="cls-1" points="442.5 318.5 431.5 328.18 430.5 462.5 458.5 456.5 450.5 403.5 444.5 398.5 442.5 318.5"/>
    <path class="cls-1" d="m342.26,456.07l12.24.43,27,6h49.14l27.86-6h12l2.63,27.59-.63,47.41c-6.66-.43-10.82,6.53-22.29,12.4-18.25,9.35-35.98,7.61-48.71,7.6-6.23,0-10.33-.03-16-1-13.88-2.38-23.79-8.13-29.14-11.31-4.2-2.49-9.83-6.25-15.86-11.69-.21-13.55-.57-28.11-.78-41.66.85-9.92,1.7-19.85,2.55-29.77"/>
    <path class="cls-7" d="m472.5,538.5c-12.14-.78-16.63,25-71.63,22-51.01-2.78-50.52-22.56-60.37-23v-10c.72.18,3.78,3.49,5,4,1.58,1.3,2,2,5,4,2,1,7.13,5.65,18,10,12.67,5.63,25.48,5.63,33,6,3,.29,9.64.02,13,0,12.82-.07,24.08-2.05,35-7,5.65-2.56,9.48-6.44,13-9,4.05-2.95,8.14-4.31,10-4v7Z"/>
    <path class="cls-2" d="m340.5,544.5c9.85.44,8.99,21.22,60,24l-1,34-58-2-1-56Z"/>
    <path class="cls-2" d="m472.5,544.5c-9.85.44-8.99,21.22-60,24l1,34,58-2,1-56Z"/>
    <g>
      <path class="cls-3" d="m406.27,622.5s0,0,0,0c.08,0,.15,0,.23,0h-.23Z"/>
      <path class="cls-3" d="m418.5,654.5c-2.72-.41,3.04-31.82-12.23-32-14.81-.22-9.83,32.62-11.77,32l-32.23-1.02.23.02s5,12,19,13.88h49.77c14.23-1.88,19.23-13.88,19.23-13.88v-.02l-32,1.02Z"/>
    </g>
    <path class="cls-14" d="m402.5,632.5h8l2,18c-.68.51-2.85,2-6,2-.85,0-3.48-.11-6-2,.67-6,1.33-12,2-18Z"/>
    <path class="cls-2" d="m399.5,602.5l-47-2s.29,18.17.64,20.08,45.36,1.92,45.36,1.92l1-20"/>
    <path class="cls-2" d="m413.5,602.5l47-2s-.29,18.17-.64,20.08-45.36,1.92-45.36,1.92l-1-20"/>
    <path class="cls-2" d="m406.27,622.5c-10.8-.74-11.25,19.76-11.46,28.32-.06,2.27-.1,3.7-.31,3.68l-32.23-1.02c-6.23-7.02-9.12-32.89-9.12-32.89l5.17.64c1.46.18,2.92.31,4.39.37l15.48.7,20.32.2h7.77Z"/>
    <path class="cls-2" d="m406.14,622.5c8.51-.6,10.69,10.61,11.36,20,.45,6.31.42,12,.42,12l32.23-1.02c6.23-7.02,9.12-32.89,9.12-32.89l-5.17.64c-1.46.18-2.92.31-4.39.37l-15.48.7-20.32.2h-7.77Z"/>
  </g>
  <g id="Face_Cockpit" data-name="Face/Cockpit">
    <path class="cls-4" d="m437.11,483.84l-6.47-3.63v-17.71s.78-7.7-24.53-9.35h0s-.03,0-.04,0c-.01,0-.03,0-.04,0h0c-25.31,1.66-24.53,9.36-24.53,9.36v17.71l-6.47,3.63v10.53l6.47,4.83s-4,32.3,7,43.3c0,0,7.25,4.16,15.7,3.35,1.54-.15,3.08-.15,4.61,0,8.32.8,14.83-3.35,14.83-3.35,11-11,7-43.3,7-43.3l6.47-4.83v-10.53Z"/>
    <polygon class="cls-6" points="397.5 404.5 413.5 404.5 417.5 444.5 392.5 443.5 397.5 404.5"/>
    <path class="cls-8" d="m405.5,313.5s-23-1-35,5l10,9.68,1,43.32,17,10-2,13s1,2,6,2h7.47c5,0,6-2,6-2l-2-13,17-10,1-43.32,10.53-9.68c-12-6-37-5-37-5Z"/>
    <path class="cls-1" d="m370.5,318.5l5-53c.83.63,11.73-38.46,21-57,.57-1.13,2.58-4.93,5.98-6.23,1.93-.74,4.02-.77,4.02-.77.28,0,1.7,0,3.04.37.71.2,3.48,1.09,6.96,6.63,2.08,3.31,3,6,3,6,2.01,5.86,8.81,24.95,18,51,1.67,17.67,3.33,35.33,5,53-3.53-1.31-8.66-2.94-15-4-5.59-.93-10.47-.97-20-1-10.47-.04-15.84-.04-22,1-6.4,1.08-11.54,2.72-15,4Z"/>
    <path class="cls-21" d="m405.42,229.5c-8.37,0-18.66,35.32-20.61,42.72-.21.79.04,1.62.64,2.2l4.41,4.21c.43.41,1.16.29,1.41-.24,2.15-4.58,10.51-21.9,14.14-21.9s12,17.32,14.14,21.9c.25.53.98.65,1.41.24l4.04-3.86c.84-.8,1.18-1.96.88-3.06-2.23-8.42-12.1-42.23-20.47-42.23Z"/>
  </g>
  <g id="Wings">
    <polyline class="cls-3" points="324.1 452.61 342.26 456.07 339.72 485.84 323.5 483.5 323.5 452.5"/>
    <polyline class="cls-3" points="252.5 530.5 323.5 453.14 323.5 484.09 265.5 559.5 252.5 530.5"/>
    <path class="cls-3" d="m251.82,531.42l13.05,28.08-2.37,148-13,12h-22.54l3.54-69,13-15v-47c-3.26-5.58-7.08-14.5-6-25,.7-6.81,3.26-12.23,5.94-17.94,3.09-6.55,6.47-11.61,9.06-15.06"/>
    <polygon class="cls-2" points="339.72 485.84 323.5 484.09 264.87 559.5 262.5 707.5 268.5 710.5 317.5 655.5 339.5 652.5 341.5 600.5 339.72 485.84"/>
    <polyline class="cls-3" points="226.96 719.5 249.5 719.5 262.5 707.5 268.5 710.5 317.5 655.5 339.5 652.5 350.5 670.5 345.5 704.5 308.5 705.5 308.5 692.5 268.5 743.5 226.5 728.5 226.96 719.5"/>
    <polyline class="cls-3" points="488.9 452.61 470.74 456.07 473.28 485.84 489.5 483.5 489.5 452.5"/>
    <polyline class="cls-3" points="560.5 530.5 489.5 453.14 489.5 484.09 547.5 559.5 560.5 530.5"/>
    <path class="cls-3" d="m561.18,531.42l-13.05,28.08,2.37,148,13,12h22.54s-3.54-69-3.54-69l-13-15v-47c3.26-5.58,7.08-14.5,6-25-.7-6.81-3.26-12.23-5.94-17.94-3.09-6.55-6.47-11.61-9.06-15.06"/>
    <polygon class="cls-2" points="473.28 485.84 489.5 484.09 548.13 559.5 550.5 707.5 544.5 710.5 495.5 655.5 473.5 652.5 471.5 600.5 473.28 485.84"/>
    <polyline class="cls-3" points="586.04 719.5 563.5 719.5 550.5 707.5 544.5 710.5 495.5 655.5 473.5 652.5 462.5 670.5 467.5 704.5 504.5 705.5 504.5 692.5 544.5 743.5 586.5 728.5 586.04 719.5"/>
  </g>
</svg>